<mxfile host="app.diagrams.net" agent="Mozilla/5.0 (Macintosh; Intel Mac OS X 10_15_7) AppleWebKit/605.1.15 (KHTML, like Gecko) Version/17.1 Safari/605.1.15" version="24.8.3">
  <diagram name="Страница — 1" id="zorqz8H5-nyl9L8e0trX">
    <mxGraphModel dx="780" dy="536" grid="1" gridSize="10" guides="1" tooltips="1" connect="1" arrows="1" fold="1" page="1" pageScale="1" pageWidth="827" pageHeight="1169" math="0" shadow="0">
      <root>
        <mxCell id="0" />
        <mxCell id="1" parent="0" />
        <mxCell id="BKsnODFvNX076_DHbucX-1" value="Taxi" style="ellipse;whiteSpace=wrap;html=1;" vertex="1" parent="1">
          <mxGeometry x="180" y="200" width="120" height="80" as="geometry" />
        </mxCell>
        <mxCell id="BKsnODFvNX076_DHbucX-2" value="clients&amp;nbsp;" style="ellipse;whiteSpace=wrap;html=1;" vertex="1" parent="1">
          <mxGeometry x="360" y="360" width="120" height="80" as="geometry" />
        </mxCell>
        <mxCell id="BKsnODFvNX076_DHbucX-3" value="driver" style="ellipse;whiteSpace=wrap;html=1;" vertex="1" parent="1">
          <mxGeometry x="530" y="200" width="120" height="80" as="geometry" />
        </mxCell>
        <mxCell id="BKsnODFvNX076_DHbucX-4" value="wash service" style="ellipse;whiteSpace=wrap;html=1;" vertex="1" parent="1">
          <mxGeometry x="354" y="50" width="120" height="80" as="geometry" />
        </mxCell>
        <mxCell id="BKsnODFvNX076_DHbucX-5" value="order" style="ellipse;whiteSpace=wrap;html=1;" vertex="1" parent="1">
          <mxGeometry x="354" y="200" width="120" height="80" as="geometry" />
        </mxCell>
        <mxCell id="BKsnODFvNX076_DHbucX-10" value="" style="endArrow=ERmany;html=1;rounded=0;startArrow=ERmandOne;startFill=0;endFill=0;" edge="1" parent="1">
          <mxGeometry width="50" height="50" relative="1" as="geometry">
            <mxPoint x="360" y="390" as="sourcePoint" />
            <mxPoint x="240" y="280" as="targetPoint" />
            <Array as="points">
              <mxPoint x="240" y="390" />
            </Array>
          </mxGeometry>
        </mxCell>
        <mxCell id="BKsnODFvNX076_DHbucX-13" value="" style="endArrow=ERmandOne;html=1;rounded=0;startArrow=ERmany;startFill=0;endFill=0;" edge="1" parent="1">
          <mxGeometry width="50" height="50" relative="1" as="geometry">
            <mxPoint x="460" y="259.5" as="sourcePoint" />
            <mxPoint x="530" y="259.5" as="targetPoint" />
          </mxGeometry>
        </mxCell>
        <mxCell id="BKsnODFvNX076_DHbucX-15" value="" style="endArrow=ERmany;html=1;rounded=0;endFill=0;startArrow=ERmandOne;startFill=0;" edge="1" parent="1" target="BKsnODFvNX076_DHbucX-4">
          <mxGeometry width="50" height="50" relative="1" as="geometry">
            <mxPoint x="240" y="200" as="sourcePoint" />
            <mxPoint x="240" y="90" as="targetPoint" />
            <Array as="points">
              <mxPoint x="240" y="90" />
            </Array>
          </mxGeometry>
        </mxCell>
        <mxCell id="BKsnODFvNX076_DHbucX-17" value="" style="endArrow=ERmany;html=1;rounded=0;entryX=0.5;entryY=1;entryDx=0;entryDy=0;exitX=0.45;exitY=0.125;exitDx=0;exitDy=0;exitPerimeter=0;startArrow=ERmany;startFill=0;endFill=0;" edge="1" parent="1" source="BKsnODFvNX076_DHbucX-2" target="BKsnODFvNX076_DHbucX-5">
          <mxGeometry width="50" height="50" relative="1" as="geometry">
            <mxPoint x="370" y="360" as="sourcePoint" />
            <mxPoint x="420" y="310" as="targetPoint" />
          </mxGeometry>
        </mxCell>
        <mxCell id="BKsnODFvNX076_DHbucX-18" value="" style="endArrow=ERmany;html=1;rounded=0;startArrow=ERmany;startFill=0;endFill=0;" edge="1" parent="1">
          <mxGeometry width="50" height="50" relative="1" as="geometry">
            <mxPoint x="290" y="260" as="sourcePoint" />
            <mxPoint x="360" y="260" as="targetPoint" />
            <Array as="points">
              <mxPoint x="340" y="260" />
            </Array>
          </mxGeometry>
        </mxCell>
      </root>
    </mxGraphModel>
  </diagram>
</mxfile>
